<svg xmlns="http://www.w3.org/2000/svg" viewBox="0 0 88 28" role="img" aria-labelledby="title">
  <title id="title">Visa</title>
  <path fill="#1434CB" d="M33.1 3.1 22.4 24.9h-7L10.2 7.8C9.9 6.7 9.7 6.3 8.5 5.7A28.8 28.8 0 0 0 2 3.5l.2-.8h11.3c1.5 0 2.8 1 3.1 2.7l2.8 12.4 6.9-15.1h6.8v.4Zm27.2 14.7c0-5.9-8.2-6.2-8.1-8.9 0-.8.8-1.7 2.5-1.9 2.1-.2 4.3.4 6.2 1.1L62 3a17 17 0 0 0-5.9-1.1c-6.3 0-10.7 3.3-10.7 8.1 0 3.5 3.1 5.5 5.5 6.7 2.4 1.2 3.2 2 3.2 3.1 0 1.7-2 2.4-3.9 2.4-3.3 0-5.2-.9-6.7-1.6l-1.2 5.3c1.5.7 4.2 1.3 7 1.3 6.7 0 11-3.3 11-8.4ZM77 26.8h5.9L77.7 2.7h-5.5c-1.2 0-2.3.7-2.7 1.8l-9.7 22.3h6.8l1.3-3.7h8.3l.8 3.7Zm-7.2-8.7 3.4-9.3 1.9 9.3h-5.3ZM43.7 2.7l-5.3 24.1H32l5.3-24.1h6.4Z"/>
</svg>
